<svg width="18" height="18" viewBox="0 0 18 18" fill="none" xmlns="http://www.w3.org/2000/svg">
<path fill-rule="evenodd" clip-rule="evenodd" d="M4 7V8.5L2.2545 11.4925C1.477 12.825 2.4385 14.5 3.982 14.5H7.518C9.0615 14.5 10.023 12.8255 9.2455 11.4925L7.5 8.5V7C7.63261 7 7.75978 6.94732 7.85355 6.85355C7.94732 6.75979 8 6.63261 8 6.5V4.5C8 4.36739 7.94732 4.24021 7.85355 4.14645C7.75978 4.05268 7.63261 4 7.5 4H4C3.86739 4 3.74021 4.05268 3.64644 4.14645C3.55268 4.24021 3.5 4.36739 3.5 4.5V6.5C3.5 6.63261 3.55268 6.75979 3.64644 6.85355C3.74021 6.94732 3.86739 7 4 7ZM8.3815 11.996L6.5 8.7705V7H5V8.77L3.1185 11.996C2.7295 12.663 3.21 13.5 3.982 13.5H7.518C8.2895 13.5 8.7705 12.663 8.3815 11.996ZM4.5 5V6H7V5H4.5ZM13 4.3395C14.141 3.5795 15 2.8445 15 1.5H16C16 3.2055 14.9615 4.1905 13.906 4.9325C14.3215 5.2115 14.7345 5.514 15.075 5.8605C15.611 6.405 16 7.087 16 8C16 8.913 15.611 9.595 15.075 10.14C14.7345 10.486 14.3215 10.7885 13.906 11.0675C14.961 11.8095 16 12.7945 16 14.5H15C14.9997 14.3233 14.9853 14.1567 14.957 14H12.5C12.3674 14 12.2402 13.9473 12.1464 13.8536C12.0527 13.7598 12 13.6326 12 13.5C12 13.3674 12.0527 13.2402 12.1464 13.1464C12.2402 13.0527 12.3674 13 12.5 13H14.5325C14.1715 12.4905 13.6285 12.0795 13 11.661C11.859 12.421 11 13.156 11 14.5H10C10 12.7945 11.0385 11.8095 12.094 11.0675C11.6785 10.7885 11.2655 10.486 10.925 10.1395C10.389 9.595 10 8.913 10 8C10 7.087 10.389 6.405 10.925 5.86C11.2655 5.514 11.6785 5.2115 12.094 4.9325C11.039 4.1905 10 3.2055 10 1.5H11C11.0003 1.67667 11.0147 1.84333 11.043 2H13.5C13.6326 2 13.7598 2.05268 13.8536 2.14645C13.9473 2.24021 14 2.36739 14 2.5C14 2.63261 13.9473 2.75979 13.8536 2.85355C13.7598 2.94732 13.6326 3 13.5 3H11.4675C11.8285 3.5095 12.3715 3.9205 13 4.339M13 5.533C12.498 5.8595 12.052 6.1585 11.7 6.4995H14.3C13.9485 6.1585 13.502 5.8595 13 5.533ZM11 8C11.0003 7.82133 11.0217 7.65467 11.064 7.5H14.936C14.9783 7.65467 14.9997 7.82133 15 8C14.9997 8.17867 14.9783 8.34533 14.936 8.5H11.064C11.0206 8.33692 10.999 8.16877 11 8ZM11.7 9.5C12.052 9.841 12.498 10.14 13 10.4665C13.502 10.14 13.9485 9.841 14.3 9.5H11.7Z" fill="white"/>
<path fill-rule="evenodd" clip-rule="evenodd" d="M1.5 0C1.10218 0 0.720644 0.158035 0.43934 0.43934C0.158035 0.720644 0 1.10218 0 1.5V16.5C0 16.8978 0.158035 17.2794 0.43934 17.5607C0.720644 17.842 1.10218 18 1.5 18H16.5C16.8978 18 17.2794 17.842 17.5607 17.5607C17.842 17.2794 18 16.8978 18 16.5V1.5C18 1.10218 17.842 0.720644 17.5607 0.43934C17.2794 0.158035 16.8978 0 16.5 0H1.5ZM17 1.5C17 1.36739 16.9473 1.24021 16.8536 1.14645C16.7598 1.05268 16.6326 1 16.5 1H1.5C1.36739 1 1.24021 1.05268 1.14645 1.14645C1.05268 1.24021 1 1.36739 1 1.5V16.5C1 16.6326 1.05268 16.7598 1.14645 16.8536C1.24021 16.9473 1.36739 17 1.5 17H16.5C16.6326 17 16.7598 16.9473 16.8536 16.8536C16.9473 16.7598 17 16.6326 17 16.5V1.5Z" fill="white"/>
</svg>
