<svg width="44" height="44" viewBox="0 0 44 44" fill="none" xmlns="http://www.w3.org/2000/svg">
<g clip-path="url(#clip0_1_20)">
<path d="M10.6667 24.75C9.69421 24.75 8.76158 24.3637 8.07394 23.6761C7.38631 22.9884 7 22.0558 7 21.0833C7 20.1109 7.38631 19.1782 8.07394 18.4906C8.76158 17.803 9.69421 17.4167 10.6667 17.4167M40 24.75C40.9725 24.75 41.9051 24.3637 42.5927 23.6761C43.2804 22.9884 43.6667 22.0558 43.6667 21.0833C43.6667 20.1109 43.2804 19.1782 42.5927 18.4906C41.9051 17.803 40.9725 17.4167 40 17.4167" stroke="black" stroke-width="1.5" stroke-linecap="round" stroke-linejoin="round"/>
<path d="M16.1667 9.16667V3.66667M34.5 9.16667V3.66667" stroke="black" stroke-width="1.5" stroke-linejoin="round"/>
<path d="M16.1667 3.66667C17.1792 3.66667 18 2.84586 18 1.83333C18 0.820811 17.1792 0 16.1667 0C15.1542 0 14.3333 0.820811 14.3333 1.83333C14.3333 2.84586 15.1542 3.66667 16.1667 3.66667Z" stroke="black" stroke-width="1.5" stroke-linejoin="round"/>
<path d="M34.5 3.66667C35.5125 3.66667 36.3333 2.84586 36.3333 1.83333C36.3333 0.820811 35.5125 0 34.5 0C33.4875 0 32.6667 0.820811 32.6667 1.83333C32.6667 2.84586 33.4875 3.66667 34.5 3.66667Z" stroke="black" stroke-width="1.5" stroke-linejoin="round"/>
<path d="M28.0833 9.16667H22.5833C17.3987 9.16667 14.8045 9.16667 13.1948 10.8332C11.5852 12.4997 11.5833 15.1818 11.5833 20.5462C11.5833 25.9105 11.5833 28.5927 13.1948 30.2592C14.8045 31.9257 17.3987 31.9257 22.5833 31.9257H24.4625C25.9145 31.9257 26.426 32.2245 27.427 33.3135C28.5325 34.518 30.2448 36.1258 31.794 36.4998C33.9958 37.0315 34.2433 36.2963 33.752 34.1972C33.6127 33.5995 33.2625 32.6443 33.631 32.087C33.8382 31.7753 34.181 31.6983 34.8685 31.5443C35.952 31.3023 36.8467 30.9063 37.4718 30.2592C39.0833 28.5908 39.0833 25.9105 39.0833 20.5462C39.0833 15.1818 39.0833 12.4997 37.4718 10.8332C35.8622 9.16667 33.268 9.16667 28.0833 9.16667Z" stroke="black" stroke-width="1.5" stroke-linejoin="round"/>
<path d="M20.75 23.8333C21.795 24.9462 23.4597 25.6667 25.3333 25.6667C27.207 25.6667 28.8717 24.9462 29.9167 23.8333" stroke="black" stroke-width="1.5" stroke-linecap="round" stroke-linejoin="round"/>
<path d="M19.8498 16.5H19.8333M30.8498 16.5H30.8333" stroke="black" stroke-width="2" stroke-linecap="round" stroke-linejoin="round"/>
</g>
<defs>
<clipPath id="clip0_1_20">
<rect width="44" height="44" fill="white"/>
</clipPath>
</defs>
</svg>
