<svg width="21" height="21" viewBox="0 0 21 21" fill="none" xmlns="http://www.w3.org/2000/svg">
<path d="M2.716 8.4015C3.0125 8.5285 3.3035 8.654 3.613 8.761M4.332 17.979C3.272 16.692 3.45 14.744 2.1485 13.6085C1.5695 12.954 1.656 12.0125 1.8135 11.2175C1.9015 9.9055 0.7325 8.8635 0.6865 7.5335M7.494 0.844C7.4 2.5515 5.1655 1.514 4.826 3.0335C5.25 3.4775 5.819 3.042 6.178 2.8495C7.994 2.9145 7.123 4.5705 5.8155 4.704C4.942 5.1665 3.8545 5.6365 3.389 6.5965C3.0845 6.847 3.1345 7.419 2.569 7.3825C2.3505 7.0725 2.415 5.9245 1.8635 6.4925C0.639 7.3355 2.0885 8.6035 2.1205 9.731C4.2235 9.541 5.2605 11.45 6.7725 12.5375C7.5795 13.1855 9.2305 13.806 7.965 14.9105C7.299 16.28 5.355 17.4015 6.1325 19.048C6.1245 19.123 6.2295 19.1085 6.194 19.194M19.3545 13.2C18.3435 13.125 18.1375 14.7625 18.3425 15.492M10.7755 4.0845C10.8585 4.0645 10.947 4.0455 11.016 3.9925C11.143 3.916 11.123 3.7025 11.1095 3.5675C11.0495 3.4645 10.9995 3.2835 10.88 3.2105M19.1815 6.329C18.754 6.4485 17.654 5.854 18.0995 6.538C18.171 7.0015 18.5695 7.11 18.7925 7.2675C18.959 7.602 19.0705 8.448 18.6135 8.619C18.323 8.6295 16.799 7.0775 17.222 7.989C17.304 8.5805 17.7505 9.052 18.111 9.424C18.3 9.949 19.1295 9.6735 19.161 10.076C18.85 11.09 18.189 11.8045 17.776 12.762C17.849 13.8375 17.811 14.917 17.173 15.832C14.2675 19.027 13.563 15.604 14.575 12.891C14.944 9.6575 11.577 12.3875 10.435 10.7645C9.405 9.6785 10.306 7.696 11.359 6.9235C11.749 6.497 12.4245 6.479 12.954 6.656C14.02 6.829 15.537 6.746 16.469 6.2015C16.407 5.873 15.859 5.5245 15.486 5.4905C15.4245 5.146 16.2975 5.0255 15.7235 4.735C15.072 4.6785 15.073 5.933 14.465 5.2735C14.3225 4.839 13.374 4.8405 13.932 5.305C13.957 5.808 14.0005 6.141 13.6795 5.6C12.827 5.145 12.0255 6.14 11.2475 6.259C10.4965 5.389 12.3675 3.5805 13.1785 3.302C13.7055 2.8555 12.4345 2.1605 12.7385 2.977C12.527 3.5075 11.3975 3.136 11.9125 2.617C12.0515 2.1155 12.4425 1.7705 12.8645 1.6185C13.3905 1.672 13.6135 1.646 13.619 1.0645M8.639 0.7315C8.596 1.074 8.7765 1.3995 8.739 1.742C8.739 2.046 7.981 2.5895 8.428 2.73C8.8945 2.8875 9.238 2.706 9.518 2.3365C10.0265 1.945 10.483 1.5425 10.4015 0.8215C10.336 0.798 10.2405 0.78 10.2575 0.7375C9.7725 0.3595 9.1735 0.5245 8.639 0.7315ZM19.985 10.1175C19.985 15.5675 15.5675 19.985 10.1175 19.985C4.6675 19.985 0.25 15.5675 0.25 10.1175C0.25 4.6675 4.6675 0.25 10.1175 0.25C15.5675 0.25 19.985 4.6675 19.985 10.1175Z" stroke="white" stroke-width="0.5" stroke-linecap="round" stroke-linejoin="round"/>
</svg>
