<svg width="18" height="17" viewBox="0 0 18 17" fill="none" xmlns="http://www.w3.org/2000/svg">
<path d="M13.946 12.462V10.115C13.946 10.0123 13.909 9.92267 13.835 9.846C13.7603 9.76934 13.6693 9.731 13.562 9.731C13.4547 9.731 13.3637 9.76934 13.289 9.846C13.2143 9.92267 13.177 10.0127 13.177 10.116V12.448C13.177 12.55 13.1957 12.649 13.233 12.745C13.2703 12.8403 13.3327 12.9317 13.42 13.019L14.939 14.539C15.013 14.613 15.1007 14.653 15.202 14.659C15.3033 14.6657 15.3977 14.6257 15.485 14.539C15.5723 14.4523 15.6157 14.361 15.615 14.265C15.6143 14.169 15.571 14.078 15.485 13.992L13.946 12.462ZM8.139 4.423V0.808004C8.139 0.579338 8.21633 0.387338 8.371 0.232004C8.52567 0.0766708 8.71733 -0.000662393 8.946 4.27351e-06H11.236C11.3827 4.27351e-06 11.5187 0.0330043 11.644 0.0990043C11.7693 0.165004 11.8677 0.268338 11.939 0.409004L13.696 3.577H12.439L11.733 2.242C11.6677 2.09734 11.5693 1.98867 11.438 1.916C11.3073 1.844 11.1697 1.808 11.025 1.808H9.888C9.786 1.808 9.69633 1.845 9.619 1.919C9.54233 1.99367 9.504 2.08467 9.504 2.192C9.504 2.29934 9.54233 2.39067 9.619 2.466C9.69633 2.54 9.78633 2.577 9.889 2.577H11.041L11.737 3.912C11.8023 4.05667 11.9003 4.16534 12.031 4.238C12.1623 4.31 12.3 4.346 12.444 4.346H14.131L14.545 5.073C14.7063 5.34234 14.695 5.61067 14.511 5.878C14.327 6.14467 14.065 6.26434 13.725 6.237C13.699 6.233 13.6717 6.231 13.643 6.231H13.562C12.6513 6.231 11.806 6.406 11.026 6.756C10.246 7.106 9.56867 7.58034 8.994 8.179C8.838 8.337 8.65633 8.38034 8.449 8.309C8.24233 8.23834 8.139 8.10267 8.139 7.902V5.192H9.658C9.76067 5.192 9.85033 5.155 9.927 5.081C10.0043 5.00634 10.043 4.91534 10.043 4.808C10.043 4.70067 10.0043 4.60967 9.927 4.535C9.84967 4.46034 9.75967 4.423 9.657 4.423H8.139ZM6.562 14H4.272C4.12533 14 3.98933 13.967 3.864 13.901C3.73867 13.835 3.64067 13.7317 3.57 13.591L1.812 10.423H3.07L3.775 11.758C3.84033 11.9027 3.93867 12.0113 4.07 12.084C4.20133 12.156 4.339 12.192 4.483 12.192H5.62C5.722 12.192 5.81167 12.155 5.889 12.081C5.96567 12.0063 6.004 11.9153 6.004 11.808C6.004 11.7007 5.96567 11.6093 5.889 11.534C5.81167 11.46 5.72167 11.423 5.619 11.423H4.456L3.753 10.088C3.68767 9.94334 3.58933 9.83467 3.458 9.762C3.32733 9.69 3.19 9.654 3.046 9.654H1.377L0.101 7.41C0.0710003 7.33534 0.046667 7.265 0.0280004 7.199C0.00933369 7.13234 0 7.066 0 7C0 6.95867 0.0353338 6.824 0.106 6.596L1.377 4.346H3.045C3.189 4.346 3.32633 4.30967 3.457 4.237C3.58833 4.165 3.68667 4.05634 3.752 3.911L4.455 2.577H5.62C5.722 2.577 5.81167 2.53967 5.889 2.465C5.96567 2.391 6.004 2.3 6.004 2.192C6.004 2.084 5.96567 1.993 5.889 1.919C5.81233 1.845 5.72233 1.808 5.619 1.808H4.484C4.34 1.808 4.20233 1.844 4.071 1.916C3.94033 1.98867 3.842 2.09734 3.776 2.242L3.07 3.577H1.813L3.571 0.409004C3.641 0.268338 3.739 0.165004 3.865 0.0990043C3.991 0.0330043 4.12633 4.27351e-06 4.271 4.27351e-06H6.561C6.79033 4.27351e-06 6.98233 0.0773375 7.137 0.232004C7.29167 0.386671 7.369 0.578671 7.369 0.808004V4.423H5.85C5.74733 4.423 5.65767 4.46 5.581 4.534C5.50433 4.60867 5.466 4.7 5.466 4.808C5.466 4.916 5.50433 5.007 5.581 5.081C5.65767 5.155 5.74767 5.192 5.851 5.192H7.37V7.923H5.4L4.733 6.608C4.667 6.46267 4.56867 6.354 4.438 6.282C4.30733 6.21 4.16967 6.17367 4.025 6.173H2.659C2.55033 6.173 2.459 6.21 2.385 6.284C2.31033 6.35867 2.273 6.45 2.273 6.558C2.273 6.666 2.31133 6.757 2.388 6.831C2.46467 6.905 2.55467 6.942 2.658 6.942H4.05L4.717 8.258C4.783 8.40267 4.88133 8.51134 5.012 8.584C5.14333 8.656 5.281 8.692 5.425 8.692H7.369V11.15C7.305 11.38 7.257 11.6197 7.225 11.869C7.193 12.1177 7.177 12.3667 7.177 12.616C7.177 12.7833 7.183 12.9447 7.195 13.1C7.207 13.2553 7.22933 13.417 7.262 13.585C7.204 13.7063 7.11267 13.806 6.988 13.884C6.86333 13.962 6.72133 14.0007 6.562 14ZM10.726 15.451C9.95 14.675 9.562 13.73 9.562 12.616C9.562 11.502 9.95 10.5567 10.726 9.78C11.502 9.00334 12.4473 8.61534 13.562 8.616C14.6753 8.616 15.6203 9.004 16.397 9.78C17.1737 10.556 17.562 11.5013 17.562 12.616C17.562 13.7293 17.1737 14.6743 16.397 15.451C15.6203 16.2277 14.6753 16.616 13.562 16.616C12.4487 16.616 11.5033 16.2277 10.726 15.451Z" fill="white"/>
</svg>
