<svg width="20" height="20" viewBox="0 0 20 20" fill="none" xmlns="http://www.w3.org/2000/svg">
<path d="M9.7493 3.54272C10.9368 4.40854 12.0542 5.3665 13.0913 6.40772C14.1325 7.44481 15.0905 8.56226 15.9563 9.74972M9.7493 3.54272C8.56184 4.40854 7.44438 5.3665 6.4073 6.40772C5.36607 7.44481 4.40811 8.56226 3.5423 9.74972M9.7493 3.54272C13.3193 0.958723 16.6963 -0.0112776 18.1033 1.39572C19.5103 2.80272 18.5403 6.17972 15.9563 9.74972M15.9563 9.74972C18.5403 13.3197 19.5103 16.6967 18.1033 18.1037C17.0603 19.1467 14.9333 18.8837 12.4493 17.6237M15.9563 9.74972C15.0905 10.9372 14.1325 12.0546 13.0913 13.0917C12.0542 14.1329 10.9368 15.0909 9.7493 15.9567M3.5423 9.74972C4.40811 10.9372 5.36607 12.0546 6.4073 13.0917C7.44438 14.1329 8.56184 15.0909 9.7493 15.9567M3.5423 9.74972C0.958295 13.3197 -0.0117048 16.6967 1.3953 18.1037C2.8023 19.5107 6.1793 18.5407 9.7493 15.9567M3.5423 9.74972C0.959296 6.17972 -0.0107049 2.80272 1.3953 1.39572C2.4383 0.352722 4.5653 0.615722 7.0493 1.87572" stroke="white" stroke-width="1.5" stroke-linecap="round"/>
<path d="M9.7493 11.7497C10.8539 11.7497 11.7493 10.8543 11.7493 9.74973C11.7493 8.64516 10.8539 7.74973 9.7493 7.74973C8.64473 7.74973 7.7493 8.64516 7.7493 9.74973C7.7493 10.8543 8.64473 11.7497 9.7493 11.7497Z" stroke="white" stroke-width="1.5"/>
</svg>
