<svg width="25" height="24" viewBox="0 0 25 24" fill="none" xmlns="http://www.w3.org/2000/svg">
<path d="M12.5 0C13.6897 0 14.6552 0.926897 14.6552 2.06897V9.93103H22.8448C23.4164 9.93103 23.9646 10.149 24.3688 10.537C24.7729 10.925 25 11.4513 25 12C25 12.5487 24.7729 13.075 24.3688 13.463C23.9646 13.851 23.4164 14.069 22.8448 14.069H14.6552V21.931C14.6552 22.4798 14.4281 23.006 14.0239 23.394C13.6198 23.782 13.0716 24 12.5 24C11.9284 24 11.3802 23.782 10.9761 23.394C10.5719 23.006 10.3448 22.4798 10.3448 21.931V14.069H2.15517C1.58359 14.069 1.03541 13.851 0.631235 13.463C0.227062 13.075 0 12.5487 0 12C0 11.4513 0.227062 10.925 0.631235 10.537C1.03541 10.149 1.58359 9.93103 2.15517 9.93103H10.3448V2.06897C10.3448 0.926897 11.3103 0 12.5 0Z" fill="#FFFEFE"/>
</svg>
