<svg width="22" height="22" viewBox="0 0 22 22" fill="none" xmlns="http://www.w3.org/2000/svg">
<path d="M8.75684 0.501953C10.9305 0.452586 13.0398 1.24301 14.6455 2.70898C16.2512 4.17497 17.2298 6.20387 17.3779 8.37305C17.526 10.5422 16.8318 12.6849 15.4404 14.3555L15.1484 14.707L15.4707 15.0293L20.5566 20.1133C20.5856 20.1423 20.6083 20.177 20.624 20.2148C20.6398 20.2528 20.6475 20.2939 20.6475 20.335C20.6475 20.3761 20.6398 20.4171 20.624 20.4551C20.6083 20.4929 20.5856 20.5277 20.5566 20.5566C20.5277 20.5856 20.4929 20.6083 20.4551 20.624C20.4171 20.6398 20.3761 20.6475 20.335 20.6475C20.2939 20.6475 20.2528 20.6398 20.2148 20.624C20.177 20.6083 20.1423 20.5856 20.1133 20.5566L15.0293 15.4707L14.707 15.1484L14.3555 15.4404C12.6849 16.8318 10.5422 17.526 8.37305 17.3779C6.20387 17.2298 4.17497 16.2512 2.70898 14.6455C1.24301 13.0398 0.452586 10.9305 0.501953 8.75684C0.551354 6.58312 1.43716 4.51206 2.97461 2.97461C4.51206 1.43716 6.58312 0.551354 8.75684 0.501953ZM10.4844 1.29785C8.96903 0.996432 7.39815 1.15101 5.9707 1.74219C4.54322 2.33347 3.32231 3.33447 2.46387 4.61914C1.60542 5.9039 1.14746 7.41479 1.14746 8.95996V8.96094C1.14987 11.0319 1.97405 13.017 3.43848 14.4814C4.90291 15.9459 6.88799 16.7701 8.95898 16.7725H8.95996C10.5051 16.7725 12.016 16.3145 13.3008 15.4561C14.5854 14.5976 15.5865 13.3767 16.1777 11.9492C16.7689 10.5218 16.9235 8.95089 16.6221 7.43555C16.3206 5.92019 15.5769 4.52807 14.4844 3.43555C13.3919 2.34303 11.9997 1.59934 10.4844 1.29785Z" fill="black" stroke="white"/>
</svg>
