<svg width="29" height="29" viewBox="0 0 29 29" fill="none" xmlns="http://www.w3.org/2000/svg">
<path d="M16.9167 12.0833L13.2917 15.7083M24.5147 3.66244C24.6293 3.62287 24.7528 3.61636 24.871 3.64365C24.9892 3.67094 25.0973 3.73092 25.183 3.81675C25.2687 3.90259 25.3285 4.0108 25.3556 4.12902C25.3828 4.24725 25.3761 4.37071 25.3363 4.48531L18.1782 24.9424C18.1353 25.0647 18.0567 25.1713 17.9526 25.2484C17.8484 25.3254 17.7235 25.3694 17.594 25.3746C17.4646 25.3798 17.3365 25.346 17.2265 25.2776C17.1165 25.2091 17.0296 25.1092 16.9771 24.9907L13.0875 16.24C13.022 16.0945 12.9055 15.978 12.76 15.9125L4.00925 12.0217C3.89119 11.969 3.79164 11.8821 3.72348 11.7722C3.65532 11.6623 3.62166 11.5346 3.62687 11.4054C3.63207 11.2762 3.67589 11.1515 3.75267 11.0475C3.82945 10.9435 3.93566 10.8649 4.05758 10.8218L24.5147 3.66244Z" stroke="white" stroke-width="1.5" stroke-linecap="round" stroke-linejoin="round"/>
</svg>
