<svg width="28" height="24" viewBox="0 0 28 24" fill="none" xmlns="http://www.w3.org/2000/svg">
<path d="M15.75 20.5714H1.75C0.7875 20.5714 0 21.3429 0 22.2857C0 23.2286 0.7875 24 1.75 24H15.75C16.7125 24 17.5 23.2286 17.5 22.2857C17.5 21.3429 16.7125 20.5714 15.75 20.5714ZM26.25 6.85714H1.75C0.7875 6.85714 0 7.62857 0 8.57143C0 9.51429 0.7875 10.2857 1.75 10.2857H26.25C27.2125 10.2857 28 9.51429 28 8.57143C28 7.62857 27.2125 6.85714 26.25 6.85714ZM1.75 17.1429H26.25C27.2125 17.1429 28 16.3714 28 15.4286C28 14.4857 27.2125 13.7143 26.25 13.7143H1.75C0.7875 13.7143 0 14.4857 0 15.4286C0 16.3714 0.7875 17.1429 1.75 17.1429ZM0 1.71429C0 2.65714 0.7875 3.42857 1.75 3.42857H26.25C27.2125 3.42857 28 2.65714 28 1.71429C28 0.771429 27.2125 0 26.25 0H1.75C0.7875 0 0 0.771429 0 1.71429Z" fill="white"/>
</svg>
