<svg width="37" height="34" viewBox="0 0 37 34" fill="none" xmlns="http://www.w3.org/2000/svg">
<path d="M13.5041 0H23.4959C25.5679 0 27.2111 -1.36403e-07 28.5336 0.0993845C29.8884 0.200513 31.0326 0.413231 32.0799 0.901436C33.7756 1.69624 35.1538 2.96396 36.0171 4.52287C36.5503 5.48185 36.7818 6.53497 36.8918 7.7799C37 8.99518 37 10.5051 37 12.4091V21.5909C37 23.4949 37 25.0048 36.8918 26.2201C36.7818 27.465 36.5503 28.5164 36.019 29.4789C35.1546 31.0368 33.7757 32.3032 32.0799 33.0968C31.0326 33.5868 29.8884 33.7995 28.5336 33.9006C27.2111 34 25.5679 34 23.4959 34H13.5041C11.4321 34 9.78887 34 8.46636 33.9006C7.11159 33.7995 5.96744 33.5868 4.92195 33.0986C3.2259 32.3045 1.84699 31.0374 0.982872 29.4789C0.449692 28.5164 0.218205 27.465 0.108154 26.2201C-1.48438e-07 25.0048 0 23.4949 0 21.5909V12.4091C0 10.5051 -1.48438e-07 8.99518 0.108154 7.7799C0.218205 6.53497 0.449692 5.48359 0.980974 4.52287C1.84559 2.96408 3.2252 1.69694 4.92195 0.903179C5.96554 0.413231 7.11159 0.200513 8.46636 0.0993845C9.78887 -1.36403e-07 11.4321 0 13.5041 0ZM8.69785 2.70605C7.52144 2.79323 6.79092 2.96236 6.21221 3.23262C5.05217 3.77585 4.10901 4.64254 3.51785 5.70851C3.22374 6.24031 3.04159 6.91159 2.94482 7.99262C2.84805 9.09108 2.84615 10.4929 2.84615 12.4667V21.5333C2.84615 23.5088 2.84615 24.9107 2.94482 26.0074C3.03969 27.0884 3.22374 27.7597 3.51785 28.2915C4.10901 29.3575 5.05217 30.2241 6.21221 30.7674C6.79092 31.0376 7.52144 31.205 8.69785 31.2939C9.44164 31.3497 10.3126 31.3707 11.3846 31.3811V2.61887C10.3126 2.62759 9.44164 2.65026 8.69785 2.70605Z" fill="#FDFBFB"/>
</svg>
