<svg width="36" height="37" viewBox="0 0 36 37" fill="none" xmlns="http://www.w3.org/2000/svg">
<path d="M35.053 5.99307L18.4377 0.0759231C18.1535 -0.0253077 17.8462 -0.0253077 17.562 0.0759231L0.946723 5.99307C0.671022 6.09126 0.43123 6.27965 0.261315 6.53154C0.0914006 6.78343 -2.15345e-05 7.08605 3.80482e-09 7.39654V22.1894C3.80482e-09 22.5817 0.145877 22.958 0.405541 23.2354C0.665204 23.5128 1.01738 23.6687 1.3846 23.6687C1.75182 23.6687 2.104 23.5128 2.36367 23.2354C2.62333 22.958 2.76921 22.5817 2.76921 22.1894V9.44905L8.58281 11.5182C7.03821 14.1843 6.54704 17.3962 7.21713 20.4488C7.88723 23.5015 9.66382 26.1452 12.1568 27.7996C9.04146 29.1051 6.34841 31.4664 4.37881 34.6949C4.27638 34.8576 4.20522 35.0404 4.16949 35.2327C4.13376 35.4249 4.13416 35.6229 4.17067 35.815C4.20718 36.0072 4.27907 36.1896 4.38216 36.3518C4.48525 36.514 4.61748 36.6526 4.77117 36.7597C4.92487 36.8668 5.09695 36.9402 5.27743 36.9757C5.45791 37.0111 5.64317 37.0078 5.82246 36.9661C6.00174 36.9243 6.17148 36.8449 6.32179 36.7325C6.47209 36.62 6.59998 36.4768 6.69802 36.311C9.30627 32.0359 13.4255 29.5858 17.9998 29.5858C22.5742 29.5858 26.6934 32.0359 29.3017 36.311C29.5048 36.6335 29.8185 36.8576 30.175 36.935C30.5315 37.0123 30.9022 36.9366 31.2069 36.7243C31.5116 36.512 31.7258 36.18 31.8033 35.8003C31.8808 35.4205 31.8152 35.0235 31.6209 34.6949C29.6513 31.4664 26.9478 29.1051 23.8429 27.7996C26.3335 26.1453 28.1084 23.5033 28.7784 20.4529C29.4484 17.4025 28.9587 14.1927 27.4169 11.5274L35.053 8.80926C35.3287 8.71112 35.5686 8.52276 35.7386 8.27087C35.9085 8.01897 36 7.71632 36 7.40579C36 7.09526 35.9085 6.7926 35.7386 6.54071C35.5686 6.28881 35.3287 6.10045 35.053 6.00231V5.99307ZM26.3075 17.7515C26.3078 19.1548 25.9968 20.5381 25.3999 21.788C24.803 23.0379 23.9372 24.1188 22.8735 24.942C21.8099 25.7652 20.5787 26.3072 19.281 26.5236C17.9834 26.74 16.6562 26.6246 15.4083 26.1869C14.1604 25.7492 13.0275 25.0016 12.1025 24.0055C11.1774 23.0094 10.4866 21.7931 10.0867 20.4565C9.68678 19.12 9.58919 17.7011 9.80192 16.3164C10.0147 14.9318 10.5316 13.6207 11.3105 12.4908L17.562 14.7098C17.8462 14.811 18.1535 14.811 18.4377 14.7098L24.6892 12.4908C25.741 14.0146 26.3082 15.8583 26.3075 17.7515ZM17.9998 11.7549L5.76341 7.39654L17.9998 3.03819L30.2363 7.39654L17.9998 11.7549Z" fill="white"/>
</svg>
