<svg width="40" height="40" viewBox="0 0 40 40" fill="none" xmlns="http://www.w3.org/2000/svg">
<path d="M4.58333 26.625C3.56667 26.625 2.59165 26.2211 1.87276 25.5022C1.15387 24.7834 0.75 23.8083 0.75 22.7917C0.75 21.775 1.15387 20.8 1.87276 20.0811C2.59165 19.3622 3.56667 18.9583 4.58333 18.9583M35.25 26.625C36.2667 26.625 37.2417 26.2211 37.9606 25.5022C38.6795 24.7834 39.0833 23.8083 39.0833 22.7917C39.0833 21.775 38.6795 20.8 37.9606 20.0811C37.2417 19.3622 36.2667 18.9583 35.25 18.9583" stroke="white" stroke-width="1.5" stroke-linecap="round" stroke-linejoin="round"/>
<path d="M10.3333 10.3333V4.58333M29.5 10.3333V4.58333" stroke="white" stroke-width="1.5" stroke-linejoin="round"/>
<path d="M10.3333 4.58333C11.3919 4.58333 12.25 3.72521 12.25 2.66667C12.25 1.60812 11.3919 0.75 10.3333 0.75C9.27479 0.75 8.41667 1.60812 8.41667 2.66667C8.41667 3.72521 9.27479 4.58333 10.3333 4.58333Z" stroke="white" stroke-width="1.5" stroke-linejoin="round"/>
<path d="M29.5 4.58333C30.5585 4.58333 31.4167 3.72521 31.4167 2.66667C31.4167 1.60812 30.5585 0.75 29.5 0.75C28.4415 0.75 27.5833 1.60812 27.5833 2.66667C27.5833 3.72521 28.4415 4.58333 29.5 4.58333Z" stroke="white" stroke-width="1.5" stroke-linejoin="round"/>
<path d="M22.7917 10.3333H17.0417C11.6213 10.3333 8.90925 10.3333 7.22642 12.0756C5.54358 13.8178 5.54167 16.6219 5.54167 22.2301C5.54167 27.8382 5.54167 30.6423 7.22642 32.3846C8.90925 34.1268 11.6213 34.1268 17.0417 34.1268H19.0063C20.5243 34.1268 21.059 34.4392 22.1055 35.5777C23.2613 36.837 25.0514 38.5179 26.671 38.9089C28.9729 39.4647 29.2317 38.6962 28.718 36.5016C28.5723 35.8767 28.2062 34.8782 28.5915 34.2955C28.8081 33.9697 29.1665 33.8892 29.8853 33.7282C31.018 33.4752 31.9533 33.0612 32.6069 32.3846C34.2917 30.6404 34.2917 27.8382 34.2917 22.2301C34.2917 16.6219 34.2917 13.8178 32.6069 12.0756C30.9241 10.3333 28.212 10.3333 22.7917 10.3333Z" stroke="white" stroke-width="1.5" stroke-linejoin="round"/>
<path d="M15.125 25.6667C16.2175 26.8301 17.9578 27.5833 19.9167 27.5833C21.8755 27.5833 23.6158 26.8301 24.7083 25.6667" stroke="white" stroke-width="1.5" stroke-linecap="round" stroke-linejoin="round"/>
<path d="M14.1839 18H14.1667M25.6839 18H25.6667" stroke="white" stroke-width="2" stroke-linecap="round" stroke-linejoin="round"/>
</svg>
