<svg width="19" height="19" viewBox="0 0 19 19" fill="none" xmlns="http://www.w3.org/2000/svg">
<path d="M5.58717 13.4114C1.26555 9.09067 -0.485328 3.83542 1.67505 1.67505C3.4163 -0.067078 7.17005 0.733547 10.8232 3.3743M13.4114 5.58717C17.733 9.9088 19.4839 15.1632 17.3235 17.3235C15.5832 19.0639 11.8373 18.2668 8.1868 15.633M17.3235 1.67505C19.4848 3.83542 17.733 9.0898 13.4123 13.4114C9.0898 17.733 3.83542 19.4839 1.67505 17.3235C-0.0670781 15.5823 0.733547 11.8285 3.3743 8.17542C4.04212 7.25536 4.78208 6.38988 5.58717 5.58717C9.9088 1.26555 15.1632 -0.485328 17.3235 1.67505Z" stroke="black" stroke-width="1.5" stroke-linecap="round"/>
<path d="M11.6868 9.4993C11.6868 10.0795 11.4563 10.6359 11.0461 11.0461C10.6358 11.4563 10.0794 11.6868 9.49927 11.6868C8.91911 11.6868 8.36271 11.4563 7.95247 11.0461C7.54224 10.6359 7.31177 10.0795 7.31177 9.4993C7.31177 8.91914 7.54224 8.36274 7.95247 7.9525C8.36271 7.54227 8.91911 7.3118 9.49927 7.3118C10.0794 7.3118 10.6358 7.54227 11.0461 7.9525C11.4563 8.36274 11.6868 8.91914 11.6868 9.4993Z" stroke="black" stroke-width="1.5"/>
</svg>
