<svg width="39" height="39" viewBox="0 0 39 39" fill="none" xmlns="http://www.w3.org/2000/svg">
<path d="M4.41667 25.5C3.44421 25.5 2.51158 25.1137 1.82394 24.426C1.13631 23.7384 0.75 22.8058 0.75 21.8333C0.75 20.8609 1.13631 19.9282 1.82394 19.2406C2.51158 18.553 3.44421 18.1667 4.41667 18.1667M33.75 25.5C34.7225 25.5 35.6551 25.1137 36.3427 24.426C37.0304 23.7384 37.4167 22.8058 37.4167 21.8333C37.4167 20.8609 37.0304 19.9282 36.3427 19.2406C35.6551 18.553 34.7225 18.1667 33.75 18.1667" stroke="black" stroke-width="1.5" stroke-linecap="round" stroke-linejoin="round"/>
<path d="M9.91667 9.91666V4.41666M28.25 9.91666V4.41666" stroke="black" stroke-width="1.5" stroke-linejoin="round"/>
<path d="M9.91666 4.41667C10.9292 4.41667 11.75 3.59586 11.75 2.58333C11.75 1.57081 10.9292 0.75 9.91666 0.75C8.90414 0.75 8.08333 1.57081 8.08333 2.58333C8.08333 3.59586 8.90414 4.41667 9.91666 4.41667Z" stroke="black" stroke-width="1.5" stroke-linejoin="round"/>
<path d="M28.25 4.41667C29.2625 4.41667 30.0833 3.59586 30.0833 2.58333C30.0833 1.57081 29.2625 0.75 28.25 0.75C27.2375 0.75 26.4167 1.57081 26.4167 2.58333C26.4167 3.59586 27.2375 4.41667 28.25 4.41667Z" stroke="black" stroke-width="1.5" stroke-linejoin="round"/>
<path d="M21.8333 9.91666H16.3333C11.1487 9.91666 8.5545 9.91666 6.94483 11.5832C5.33516 13.2497 5.33333 15.9318 5.33333 21.2962C5.33333 26.6605 5.33333 29.3427 6.94483 31.0092C8.5545 32.6757 11.1487 32.6757 16.3333 32.6757H18.2125C19.6645 32.6757 20.176 32.9745 21.177 34.0635C22.2825 35.268 23.9948 36.8758 25.544 37.2498C27.7458 37.7815 27.9933 37.0463 27.502 34.9472C27.3627 34.3495 27.0125 33.3943 27.381 32.837C27.5882 32.5253 27.931 32.4483 28.6185 32.2943C29.702 32.0523 30.5967 31.6563 31.2218 31.0092C32.8333 29.3408 32.8333 26.6605 32.8333 21.2962C32.8333 15.9318 32.8333 13.2497 31.2218 11.5832C29.6122 9.91666 27.018 9.91666 21.8333 9.91666Z" stroke="black" stroke-width="1.5" stroke-linejoin="round"/>
<path d="M14.5 24.5833C15.545 25.6962 17.2097 26.4167 19.0833 26.4167C20.957 26.4167 22.6217 25.6962 23.6667 24.5833" stroke="black" stroke-width="1.5" stroke-linecap="round" stroke-linejoin="round"/>
<path d="M13.5998 17.25H13.5833M24.5998 17.25H24.5833" stroke="black" stroke-width="2" stroke-linecap="round" stroke-linejoin="round"/>
</svg>
