<svg width="21" height="5" viewBox="0 0 21 5" fill="none" xmlns="http://www.w3.org/2000/svg">
<path d="M0 2.5C0 1.83696 0.237053 1.20107 0.65901 0.732233C1.08097 0.263392 1.65326 0 2.25 0C2.84674 0 3.41903 0.263392 3.84099 0.732233C4.26295 1.20107 4.5 1.83696 4.5 2.5C4.5 3.16304 4.26295 3.79893 3.84099 4.26777C3.41903 4.73661 2.84674 5 2.25 5C1.65326 5 1.08097 4.73661 0.65901 4.26777C0.237053 3.79893 0 3.16304 0 2.5ZM8.25 2.5C8.25 1.83696 8.48705 1.20107 8.90901 0.732233C9.33097 0.263392 9.90326 0 10.5 0C11.0967 0 11.669 0.263392 12.091 0.732233C12.5129 1.20107 12.75 1.83696 12.75 2.5C12.75 3.16304 12.5129 3.79893 12.091 4.26777C11.669 4.73661 11.0967 5 10.5 5C9.90326 5 9.33097 4.73661 8.90901 4.26777C8.48705 3.79893 8.25 3.16304 8.25 2.5ZM18.75 0C18.1533 0 17.581 0.263392 17.159 0.732233C16.7371 1.20107 16.5 1.83696 16.5 2.5C16.5 3.16304 16.7371 3.79893 17.159 4.26777C17.581 4.73661 18.1533 5 18.75 5C19.3467 5 19.919 4.73661 20.341 4.26777C20.7629 3.79893 21 3.16304 21 2.5C21 1.83696 20.7629 1.20107 20.341 0.732233C19.919 0.263392 19.3467 0 18.75 0Z" fill="white"/>
</svg>
