<svg width="20" height="19" viewBox="0 0 20 19" fill="none" xmlns="http://www.w3.org/2000/svg">
<path d="M10 0C10.9517 0 11.7241 0.733793 11.7241 1.63793V7.86207H18.2759C18.7331 7.86207 19.1717 8.03464 19.495 8.34181C19.8184 8.64898 20 9.06559 20 9.5C20 9.93441 19.8184 10.351 19.495 10.6582C19.1717 10.9654 18.7331 11.1379 18.2759 11.1379H11.7241V17.3621C11.7241 17.7965 11.5425 18.2131 11.2191 18.5203C10.8958 18.8274 10.4573 19 10 19C9.54273 19 9.10419 18.8274 8.78085 18.5203C8.45751 18.2131 8.27586 17.7965 8.27586 17.3621V11.1379H1.72414C1.26687 11.1379 0.828327 10.9654 0.504988 10.6582C0.18165 10.351 0 9.93441 0 9.5C0 9.06559 0.18165 8.64898 0.504988 8.34181C0.828327 8.03464 1.26687 7.86207 1.72414 7.86207H8.27586V1.63793C8.27586 0.733793 9.04828 0 10 0Z" fill="#FFFEFE"/>
</svg>
