<svg width="20" height="19" viewBox="0 0 20 19" fill="none" xmlns="http://www.w3.org/2000/svg">
<path d="M4 16L1.7 18.3C1.38334 18.6167 1.02067 18.6877 0.612002 18.513C0.203335 18.3383 -0.000665038 18.0257 1.62866e-06 17.575V2C1.62866e-06 1.45 0.196002 0.979333 0.588002 0.588C0.980002 0.196667 1.45067 0.000666667 2 0H18C18.55 0 19.021 0.196 19.413 0.588C19.805 0.98 20.0007 1.45067 20 2V14C20 14.55 19.8043 15.021 19.413 15.413C19.0217 15.805 18.5507 16.0007 18 16H4ZM5 12H11C11.2833 12 11.521 11.904 11.713 11.712C11.905 11.52 12.0007 11.2827 12 11C11.9993 10.7173 11.9033 10.48 11.712 10.288C11.5207 10.096 11.2833 10 11 10H5C4.71667 10 4.47933 10.096 4.288 10.288C4.09667 10.48 4.00067 10.7173 4 11C3.99933 11.2827 4.09534 11.5203 4.288 11.713C4.48067 11.9057 4.718 12.0013 5 12ZM5 9H15C15.2833 9 15.521 8.904 15.713 8.712C15.905 8.52 16.0007 8.28267 16 8C15.9993 7.71733 15.9033 7.48 15.712 7.288C15.5207 7.096 15.2833 7 15 7H5C4.71667 7 4.47933 7.096 4.288 7.288C4.09667 7.48 4.00067 7.71733 4 8C3.99933 8.28267 4.09534 8.52033 4.288 8.713C4.48067 8.90567 4.718 9.00133 5 9ZM5 6H15C15.2833 6 15.521 5.904 15.713 5.712C15.905 5.52 16.0007 5.28267 16 5C15.9993 4.71733 15.9033 4.48 15.712 4.288C15.5207 4.096 15.2833 4 15 4H5C4.71667 4 4.47933 4.096 4.288 4.288C4.09667 4.48 4.00067 4.71733 4 5C3.99933 5.28267 4.09534 5.52033 4.288 5.713C4.48067 5.90567 4.718 6.00133 5 6Z" fill="#C9C9C9"/>
</svg>
