<svg width="31" height="33" viewBox="0 0 31 33" fill="none" xmlns="http://www.w3.org/2000/svg">
<path fill-rule="evenodd" clip-rule="evenodd" d="M2.2692 30.5844C4.5415 33 8.1933 33 15.5 33C22.8067 33 26.46 33 28.7292 30.5827C31 28.1688 31 24.2781 31 16.5C31 8.7219 31 4.83285 28.7292 2.4156C26.4616 0 22.8067 0 15.5 0C8.1933 0 4.53995 0 2.2692 2.4156C0 4.8345 0 8.7219 0 16.5C0 24.2781 0 28.1688 2.2692 30.5844ZM25.9625 23.1C25.9625 23.4282 25.84 23.743 25.622 23.975C25.404 24.2071 25.1083 24.3375 24.8 24.3375H6.2C5.89169 24.3375 5.596 24.2071 5.37799 23.975C5.15998 23.743 5.0375 23.4282 5.0375 23.1C5.0375 22.7718 5.15998 22.457 5.37799 22.225C5.596 21.9929 5.89169 21.8625 6.2 21.8625H24.8C25.1083 21.8625 25.404 21.9929 25.622 22.225C25.84 22.457 25.9625 22.7718 25.9625 23.1ZM24.8 17.7375C25.1083 17.7375 25.404 17.6071 25.622 17.375C25.84 17.143 25.9625 16.8282 25.9625 16.5C25.9625 16.1718 25.84 15.857 25.622 15.625C25.404 15.3929 25.1083 15.2625 24.8 15.2625H6.2C5.89169 15.2625 5.596 15.3929 5.37799 15.625C5.15998 15.857 5.0375 16.1718 5.0375 16.5C5.0375 16.8282 5.15998 17.143 5.37799 17.375C5.596 17.6071 5.89169 17.7375 6.2 17.7375H24.8ZM25.9625 9.9C25.9625 10.2282 25.84 10.543 25.622 10.775C25.404 11.0071 25.1083 11.1375 24.8 11.1375H6.2C5.89169 11.1375 5.596 11.0071 5.37799 10.775C5.15998 10.543 5.0375 10.2282 5.0375 9.9C5.0375 9.57179 5.15998 9.25703 5.37799 9.02495C5.596 8.79288 5.89169 8.6625 6.2 8.6625H24.8C25.1083 8.6625 25.404 8.79288 25.622 9.02495C25.84 9.25703 25.9625 9.57179 25.9625 9.9Z" fill="#D4D4D4"/>
</svg>
