<svg width="32" height="34" viewBox="0 0 32 34" fill="none" xmlns="http://www.w3.org/2000/svg">
<path d="M11.6792 0H20.3208C22.1128 0 23.5339 -1.36403e-07 24.6777 0.0993845C25.8494 0.200513 26.839 0.413231 27.7448 0.901436C29.2113 1.69624 30.4033 2.96396 31.15 4.52287C31.6111 5.48185 31.8113 6.53497 31.9065 7.7799C32 8.99518 32 10.5051 32 12.4091V21.5909C32 23.4949 32 25.0048 31.9065 26.2201C31.8113 27.465 31.6111 28.5164 31.1516 29.4789C30.404 31.0368 29.2114 32.3032 27.7448 33.0968C26.839 33.5868 25.8494 33.7995 24.6777 33.9006C23.5339 34 22.1128 34 20.3208 34H11.6792C9.88718 34 8.46605 34 7.32226 33.9006C6.15056 33.7995 5.16103 33.5868 4.25682 33.0986C2.78997 32.3045 1.5974 31.0374 0.850051 29.4789C0.388923 28.5164 0.188718 27.465 0.0935383 26.2201C-1.28379e-07 25.0048 0 23.4949 0 21.5909V12.4091C0 10.5051 -1.28379e-07 8.99518 0.0935383 7.7799C0.188718 6.53497 0.388923 5.48359 0.84841 4.52287C1.59618 2.96408 2.78936 1.69694 4.25682 0.903179C5.15938 0.413231 6.15056 0.200513 7.32226 0.0993845C8.46605 -1.36403e-07 9.88718 0 11.6792 0ZM7.52246 2.70605C6.50503 2.79323 5.87323 2.96236 5.37272 3.23262C4.36945 3.77585 3.55374 4.64254 3.04246 5.70851C2.7881 6.24031 2.63056 6.91159 2.54687 7.99262C2.46318 9.09108 2.46154 10.4929 2.46154 12.4667V21.5333C2.46154 23.5088 2.46154 24.9107 2.54687 26.0074C2.62892 27.0884 2.7881 27.7597 3.04246 28.2915C3.55374 29.3575 4.36945 30.2241 5.37272 30.7674C5.87323 31.0376 6.50503 31.205 7.52246 31.2939C8.16574 31.3497 8.91897 31.3707 9.84615 31.3811V2.61887C8.91897 2.62759 8.16574 2.65026 7.52246 2.70605Z" fill="#FDFBFB"/>
</svg>
