<svg width="24" height="24" viewBox="0 0 24 24" fill="none" xmlns="http://www.w3.org/2000/svg">
<path fill-rule="evenodd" clip-rule="evenodd" d="M12.594 23.258L12.582 23.26L12.511 23.295L12.491 23.299L12.477 23.295L12.406 23.259C12.3953 23.2563 12.3873 23.2583 12.382 23.265L12.378 23.275L12.361 23.703L12.366 23.723L12.376 23.736L12.48 23.81L12.495 23.814L12.507 23.81L12.611 23.736L12.623 23.72L12.627 23.703L12.61 23.276C12.6073 23.2653 12.602 23.2593 12.594 23.258ZM12.858 23.145L12.844 23.147L12.66 23.24L12.65 23.25L12.647 23.261L12.665 23.691L12.67 23.703L12.678 23.711L12.879 23.803C12.8917 23.8063 12.9013 23.8037 12.908 23.795L12.912 23.781L12.878 23.167C12.8747 23.1543 12.868 23.147 12.858 23.145ZM12.143 23.147C12.1386 23.1443 12.1333 23.1435 12.1283 23.1446C12.1233 23.1457 12.1188 23.1487 12.116 23.153L12.11 23.167L12.076 23.781C12.0767 23.793 12.0823 23.801 12.093 23.805L12.108 23.803L12.309 23.71L12.319 23.702L12.322 23.691L12.34 23.261L12.337 23.249L12.327 23.239L12.143 23.147Z" fill="white"/>
<path fill-rule="evenodd" clip-rule="evenodd" d="M17.991 6.01003L5.39901 10.563L9.59401 12.991L13.293 9.29103C13.4806 9.10352 13.7351 8.99823 14.0004 8.99833C14.2656 8.99842 14.52 9.10389 14.7075 9.29153C14.895 9.47917 15.0003 9.73361 15.0002 9.99888C15.0001 10.2642 14.8946 10.5185 14.707 10.706L11.007 14.406L13.437 18.6L17.991 6.01003ZM18.314 3.76603C19.509 3.33303 20.667 4.49103 20.234 5.68603L14.952 20.291C14.518 21.489 12.882 21.635 12.243 20.532L9.02601 14.974L3.46801 11.757C2.36501 11.118 2.51101 9.48203 3.70901 9.04803L18.314 3.76603Z" fill="white"/>
</svg>
